<svg width="23" height="23" viewBox="0 0 23 23" fill="none" xmlns="http://www.w3.org/2000/svg">
<ellipse cx="12" cy="11.5" rx="9" ry="9.5"/>
<path d="M11.5 0C5.152 0 0 5.152 0 11.5C0 17.848 5.152 23 11.5 23C17.848 23 23 17.848 23 11.5C23 5.152 17.848 0 11.5 0ZM11.5 3.45C13.409 3.45 14.95 4.991 14.95 6.9C14.95 8.809 13.409 10.35 11.5 10.35C9.591 10.35 8.05 8.809 8.05 6.9C8.05 4.991 9.591 3.45 11.5 3.45ZM11.5 19.78C8.625 19.78 6.0835 18.308 4.6 16.077C4.6345 13.7885 9.2 12.535 11.5 12.535C13.7885 12.535 18.3655 13.7885 18.4 16.077C16.9165 18.308 14.375 19.78 11.5 19.78Z" fill="white"/>
</svg>
